control3min_grf.mot
version=1
nRows=20
nColumns 19
inDegrees=yes
endheader
time	1_ground_force_vx	1_ground_force_vy	1_ground_force_vz	1_ground_force_px	1_ground_force_py	1_ground_force_pz	1_ground_torque_x	1_ground_torque_y	1_ground_torque_z	2_ground_force_vx	2_ground_force_vy	2_ground_force_vz	2_ground_force_px	2_ground_force_py	2_ground_force_pz	2_ground_torque_x	2_ground_torque_y	2_ground_torque_z
            0.005000	           -0.363414	           -5.772505	            0.893294	           -0.165870	            0.006569	           -0.483035	           -0.618257	            0.001275	           -0.371056	            0.519069	           -1.100853	           -0.614227	           -0.180336	            0.005506	           -0.606141	           -0.319189	           -0.048349	           -0.018883
            0.005500	           -0.134394	           -5.952333	            0.800240	           -0.165870	            0.006569	           -0.483035	           -0.689080	            0.102638	           -0.266675	            0.288163	           -2.022608	           -0.570484	           -0.180336	            0.005506	           -0.606141	           -0.488036	           -0.105810	            0.018687
            0.006000	            0.003021	           -5.952110	            0.754043	           -0.165870	            0.006569	           -0.483035	           -0.687074	            0.158080	           -0.241780	            0.290178	           -2.575221	           -0.525528	           -0.180336	            0.005506	           -0.606141	           -0.394184	           -0.095682	           -0.075570
            0.006500	           -0.225867	           -6.493344	            0.844005	           -0.165870	            0.006569	           -0.483035	           -0.634708	            0.103172	           -0.402285	            0.008393	           -2.391920	           -0.571679	           -0.180336	            0.005506	           -0.606141	           -0.356862	           -0.020127	           -0.018766
            0.007000	           -0.088842	           -6.852866	            0.612838	           -0.165870	            0.006569	           -0.483035	           -0.699427	           -0.008270	           -0.265138	           -0.085389	           -2.391589	           -0.759352	           -0.180336	            0.005506	           -0.606141	           -0.413345	            0.008229	           -0.075191
            0.007500	            0.186444	           -6.853206	            0.703867	           -0.165870	            0.006569	           -0.483035	           -0.684659	           -0.100330	           -0.310236	            0.194984	           -2.205923	           -0.899598	           -0.180336	            0.005506	           -0.606141	           -0.300377	           -0.057667	           -0.037775
            0.008000	           -0.042073	           -6.313829	            1.027746	           -0.165870	            0.006569	           -0.483035	           -0.642319	           -0.045117	           -0.282301	            0.194381	           -2.022277	           -0.758157	           -0.180336	            0.005506	           -0.606141	           -0.394424	           -0.020330	            0.000100
            0.008500	           -0.317700	           -6.312899	            0.799149	           -0.165870	            0.006569	           -0.483035	           -0.726347	            0.000788	           -0.256027	            0.240649	           -1.838629	           -0.569807	           -0.180336	            0.005506	           -0.606141	           -0.318942	           -0.114585	           -0.000269
            0.009000	           -0.317310	           -5.953155	            0.984119	           -0.165870	            0.006569	           -0.483035	           -0.509203	            0.121082	           -0.274862	            0.330299	           -0.732899	           -0.706689	           -0.180336	            0.005506	           -0.606141	           -0.375425	           -0.086229	           -0.056694
            0.009500	           -0.042235	           -6.673967	            0.934488	           -0.165870	            0.006569	           -0.483035	           -0.600763	            0.158404	           -0.319115	            0.378478	           -1.101026	           -0.708023	           -0.180336	            0.005506	           -0.606141	           -0.394237	           -0.067728	            0.037632
            0.010000	           -0.180593	           -6.492352	            0.614611	           -0.165870	            0.006569	           -0.483035	           -0.643556	            0.084455	           -0.343994	            0.290801	           -2.759034	           -0.620041	           -0.180336	            0.005506	           -0.606141	           -0.413107	           -0.048756	            0.000007
            0.010500	           -0.042660	           -5.591980	            0.847414	           -0.165870	            0.006569	           -0.483035	           -0.691081	           -0.100915	           -0.207252	            0.285443	           -1.285513	           -0.708641	           -0.180336	            0.005506	           -0.606141	           -0.357183	            0.046714	           -0.207032
            0.011000	           -0.042951	           -6.492522	            0.660126	           -0.165870	            0.006569	           -0.483035	           -0.570279	           -0.109739	           -0.301548	           -0.179109	           -2.391760	           -0.806240	           -0.180336	            0.005506	           -0.606141	           -0.375698	           -0.010608	           -0.056425
            0.011500	           -0.363594	           -5.411777	            0.848984	           -0.165870	            0.006569	           -0.483035	           -0.597760	           -0.007966	           -0.371160	            0.288787	           -2.206422	           -0.664998	           -0.180336	            0.005506	           -0.606141	           -0.375715	           -0.001289	           -0.018690
            0.012000	           -0.225639	           -6.493737	            0.935716	           -0.165870	            0.006569	           -0.483035	           -0.638290	            0.093367	           -0.270731	            0.099935	           -1.837798	           -0.945172	           -0.180336	            0.005506	           -0.606141	           -0.413055	           -0.067527	           -0.037761
            0.012500	            0.048948	           -7.033498	            0.703435	           -0.165870	            0.006569	           -0.483035	           -0.628424	            0.130944	           -0.371636	            0.290054	           -2.574216	           -0.807096	           -0.180336	            0.005506	           -0.606141	           -0.450634	           -0.067595	           -0.056595
            0.013000	           -0.134963	           -5.951350	            0.570960	           -0.165870	            0.006569	           -0.483035	           -0.604362	            0.139862	           -0.323120	            0.104046	           -2.943692	           -0.667546	           -0.180336	            0.005506	           -0.606141	           -0.394252	           -0.076777	           -0.075503
            0.013500	           -0.134328	           -6.312864	            0.798694	           -0.165870	            0.006569	           -0.483035	           -0.670158	            0.038099	           -0.304582	            0.287417	           -1.837790	           -0.757540	           -0.180336	            0.005506	           -0.606141	           -0.507075	           -0.048759	           -0.094204
            0.014000	           -0.180399	           -6.312480	            0.707096	           -0.165870	            0.006569	           -0.483035	           -0.572232	           -0.073069	           -0.250863	            0.379122	           -1.285007	           -0.755608	           -0.180336	            0.005506	           -0.606141	           -0.450856	           -0.010744	           -0.094093
            0.014500	           -0.134783	           -6.312078	            0.615270	           -0.165870	            0.006569	           -0.483035	           -0.662223	           -0.072988	           -0.267482	            0.240608	           -1.838294	           -0.663664	           -0.180336	            0.005506	           -0.606141	           -0.394423	           -0.029514	           -0.075334
